<svg width="86" height="28" viewBox="0 0 86 28" fill="none" xmlns="http://www.w3.org/2000/svg">
<path d="M5.524 5.94V12.24H13.984V16.236H5.524V22.896H15.064V27H0.484V1.836H15.064V5.94H5.524ZM18.3482 16.956C18.3482 14.94 18.7442 13.152 19.5362 11.592C20.3522 10.032 21.4562 8.832 22.8482 7.992C24.2402 7.152 25.7882 6.732 27.4922 6.732C28.7882 6.732 30.0242 7.02 31.2002 7.596C32.3762 8.148 33.3122 8.892 34.0082 9.828V0.36H39.1202V27H34.0082V24.048C33.3842 25.032 32.5082 25.824 31.3802 26.424C30.2522 27.024 28.9442 27.324 27.4562 27.324C25.7762 27.324 24.2402 26.892 22.8482 26.028C21.4562 25.164 20.3522 23.952 19.5362 22.392C18.7442 20.808 18.3482 18.996 18.3482 16.956ZM34.0442 17.028C34.0442 15.804 33.8042 14.76 33.3242 13.896C32.8442 13.008 32.1962 12.336 31.3802 11.88C30.5642 11.4 29.6882 11.16 28.7522 11.16C27.8162 11.16 26.9522 11.388 26.1602 11.844C25.3682 12.3 24.7202 12.972 24.2162 13.86C23.7362 14.724 23.4962 15.756 23.4962 16.956C23.4962 18.156 23.7362 19.212 24.2162 20.124C24.7202 21.012 25.3682 21.696 26.1602 22.176C26.9762 22.656 27.8402 22.896 28.7522 22.896C29.6882 22.896 30.5642 22.668 31.3802 22.212C32.1962 21.732 32.8442 21.06 33.3242 20.196C33.8042 19.308 34.0442 18.252 34.0442 17.028ZM62.8706 7.056V27H57.7946V24.48C57.1466 25.344 56.2946 26.028 55.2386 26.532C54.2066 27.012 53.0786 27.252 51.8546 27.252C50.2946 27.252 48.9146 26.928 47.7146 26.28C46.5146 25.608 45.5666 24.636 44.8706 23.364C44.1986 22.068 43.8626 20.532 43.8626 18.756V7.056H48.9026V18.036C48.9026 19.62 49.2986 20.844 50.0906 21.708C50.8826 22.548 51.9626 22.968 53.3306 22.968C54.7226 22.968 55.8146 22.548 56.6066 21.708C57.3986 20.844 57.7946 19.62 57.7946 18.036V7.056H62.8706ZM66.5474 17.028C66.5474 14.964 66.9674 13.164 67.8074 11.628C68.6474 10.068 69.8114 8.868 71.2994 8.028C72.7874 7.164 74.4914 6.732 76.4114 6.732C78.8834 6.732 80.9234 7.356 82.5314 8.604C84.1634 9.828 85.2554 11.556 85.8074 13.788H80.3714C80.0834 12.924 79.5914 12.252 78.8954 11.772C78.2234 11.268 77.3834 11.016 76.3754 11.016C74.9354 11.016 73.7954 11.544 72.9554 12.6C72.1154 13.632 71.6954 15.108 71.6954 17.028C71.6954 18.924 72.1154 20.4 72.9554 21.456C73.7954 22.488 74.9354 23.004 76.3754 23.004C78.4154 23.004 79.7474 22.092 80.3714 20.268H85.8074C85.2554 22.428 84.1634 24.144 82.5314 25.416C80.8994 26.688 78.8594 27.324 76.4114 27.324C74.4914 27.324 72.7874 26.904 71.2994 26.064C69.8114 25.2 68.6474 24 67.8074 22.464C66.9674 20.904 66.5474 19.092 66.5474 17.028Z" fill="#E7E3DC"/>
</svg>
